<svg xmlns="http://www.w3.org/2000/svg" width="512" height="512" viewBox="0 0 512 512" version="1.1">
	<path d="M 230.627 19.250 C 231.037 19.938, 234.947 25.579, 239.317 31.786 C 243.687 37.993, 247.036 43.297, 246.760 43.574 C 246.483 43.850, 243.723 44.797, 240.626 45.678 L 234.995 47.280 229.670 43.744 C 221.621 38.400, 214.940 35.263, 206.309 32.776 C 199.631 30.851, 196.111 30.524, 182 30.514 C 167.759 30.505, 163.583 30.894, 151.500 33.359 C 143.800 34.930, 137.107 36.581, 136.628 37.030 C 136.148 37.478, 139.798 43.392, 144.740 50.172 C 156.253 65.968, 159.733 71.929, 158.050 72.969 C 155.844 74.333, 138.826 76.247, 128.500 76.292 C 117.251 76.342, 109.982 74.770, 88 67.537 C 77.592 64.111, 74.429 63.410, 74.191 64.474 C 73.832 66.077, 86.166 95.332, 92.753 108.500 C 95.229 113.450, 100.822 123.738, 105.181 131.363 C 109.541 138.987, 112.967 145.366, 112.795 145.539 C 112.622 145.711, 103.035 140.271, 91.491 133.450 C 79.946 126.629, 69.957 121.037, 69.294 121.024 C 67.899 120.996, 68.293 122.239, 75.473 140.500 C 81.268 155.237, 92.103 177.200, 98.468 187.108 C 101.650 192.062, 108.952 200.168, 120.608 211.685 C 130.174 221.136, 138 229.066, 138 229.307 C 138 229.547, 136.142 230.042, 133.871 230.405 C 126.011 231.661, 121.251 239.717, 122.352 249.899 C 123.012 256.006, 130.086 280.404, 132.807 285.956 C 133.738 287.857, 137.875 292.162, 142 295.524 L 149.500 301.635 153.613 313.568 C 155.875 320.130, 159.852 330.675, 162.452 337 C 165.051 343.325, 167.687 349.738, 168.308 351.250 C 168.930 352.763, 169.753 354, 170.136 354 C 171.604 354, 176 329.097, 176 320.784 L 176 314.830 184 325.624 C 188.400 331.560, 192 336.916, 192 337.525 C 192 338.134, 189.278 339.933, 185.950 341.524 C 182.623 343.114, 179.442 344.967, 178.882 345.642 C 178.191 346.475, 178.247 352.026, 179.059 362.965 C 180.484 382.175, 180.934 381.215, 168.211 386.063 C 163.420 387.888, 155.225 391.477, 150 394.039 C 144.775 396.600, 135.550 400.649, 129.500 403.036 C 116.273 408.255, 113.343 410.870, 109.551 420.836 C 107.558 426.074, 104.935 430.319, 100.380 435.679 C 96.871 439.808, 94 443.646, 94 444.209 C 94 445.247, 96.624 449.384, 111.831 472.322 C 124.964 492.131, 122.426 490.548, 142.307 491.331 C 166.150 492.269, 167.986 491.024, 162.379 477.720 C 160.937 474.299, 157.991 466.380, 155.831 460.123 C 151.249 446.845, 146.801 437.626, 146.235 440.235 C 146.028 441.189, 146.824 448.066, 148.003 455.516 C 149.181 462.967, 149.983 469.552, 149.783 470.151 C 149.359 471.424, 137.498 458.963, 128.250 447.527 C 121.803 439.556, 121.802 439.553, 122.449 434.527 C 123.531 426.140, 124.902 422.294, 127.395 420.661 C 130.100 418.888, 147.189 411.856, 147.656 412.323 C 148.948 413.615, 157.144 438.017, 163.412 459.236 C 167.579 473.339, 171.512 486.029, 172.153 487.436 C 175.003 493.691, 194 493.469, 194 487.181 C 194 484.420, 183.730 449.139, 176.596 427.393 C 172.968 416.333, 170 406.594, 170 405.750 C 170 404.905, 170.669 403.957, 171.487 403.643 C 172.544 403.238, 173.663 404.581, 175.353 408.286 C 178.517 415.219, 187.051 441.392, 191.936 459.142 C 194.399 468.094, 196.524 473.910, 197.625 474.715 C 198.900 475.647, 204.250 476, 217.114 476 C 234.688 476, 234.874 475.977, 237.894 473.436 C 239.570 472.025, 241.402 469.213, 241.965 467.186 C 242.536 465.131, 242.991 452.545, 242.994 438.750 C 243.001 409.602, 243.633 411.214, 231.221 408.724 C 226.747 407.827, 220.849 406.130, 218.115 404.954 C 212.934 402.725, 209.177 399.490, 210.376 398.291 C 210.759 397.907, 216.344 398.362, 222.786 399.301 C 235.839 401.203, 241.610 401.440, 242.434 400.107 C 242.738 399.615, 243.013 390.661, 243.047 380.209 C 243.104 362.408, 243.228 361.174, 245.007 360.708 C 246.052 360.435, 247.715 360.803, 248.704 361.525 C 250.396 362.763, 250.508 366.451, 250.639 425.523 C 250.796 495.971, 250.236 491.227, 258.410 491.403 C 261.747 491.474, 263.489 490.955, 265.009 489.435 C 267.043 487.402, 267.083 486.373, 267.576 423.935 C 268.105 357.042, 268.154 356.393, 272.416 359.930 C 273.764 361.049, 274 364.206, 274 381.122 C 274 392.055, 274.268 401, 274.595 401 C 274.922 401, 281.928 399.605, 290.163 397.901 C 298.398 396.197, 305.345 395.012, 305.602 395.268 C 305.858 395.525, 301.890 398.569, 296.784 402.033 C 291.678 405.497, 287.313 408.482, 287.083 408.666 C 285.763 409.725, 288.766 409.824, 298.516 409.044 C 305.293 408.501, 310.122 408.530, 311.223 409.120 C 313.895 410.549, 313.502 417.835, 309.978 432.189 C 307.293 443.130, 304.457 461.604, 302.473 481.080 C 301.467 490.960, 301.750 491.117, 319.848 490.776 L 334.500 490.500 336.266 486.889 C 337.718 483.921, 346.369 453.071, 355.725 417.500 C 357.289 411.555, 357.863 410.552, 359.533 410.847 C 363.830 411.606, 381.623 419.236, 383.745 421.230 C 386.809 424.109, 387.919 428.603, 388.628 441 L 389.229 451.500 384.160 458 C 381.372 461.575, 377.696 466.075, 375.992 468 L 372.893 471.500 374.915 467.352 C 378.148 460.719, 381.002 449.039, 380.982 442.520 L 380.964 436.500 377.986 441.902 C 375.660 446.122, 367.281 457.998, 366.628 458.001 C 366.558 458.001, 366.500 452.038, 366.500 444.751 C 366.500 437.463, 366.154 430.262, 365.731 428.750 C 364.844 425.580, 363 425.054, 363 427.972 C 363 429.057, 361.193 437.045, 358.985 445.722 C 355.872 457.959, 353.618 464.267, 348.943 473.830 C 345.093 481.706, 343.134 486.846, 343.518 488.058 C 344.480 491.086, 350.155 491.767, 368.961 491.110 L 386.422 490.500 392.861 482.149 C 396.403 477.556, 403.251 467.230, 408.080 459.201 C 418.175 442.416, 418.156 444.175, 408.353 433.731 C 404.859 430.008, 402 426.538, 402 426.019 C 402 423.656, 397.604 413.683, 395.417 411.084 C 393.815 409.179, 389.168 406.604, 381.745 403.505 C 375.560 400.923, 366 396.649, 360.500 394.008 C 355 391.366, 347.125 387.796, 343 386.074 C 331.207 381.150, 331.469 381.515, 331.839 370.529 C 332.013 365.359, 332.535 358.512, 333 355.314 C 334.065 347.988, 332.782 345.942, 323.896 340.796 C 320.378 338.758, 317.500 336.640, 317.500 336.089 C 317.500 335.538, 320.875 331.249, 325 326.558 L 332.500 318.029 333.147 324.302 C 333.830 330.929, 340.677 353, 342.050 353 C 343.514 353, 351.882 327.460, 356.588 308.627 C 358.202 302.167, 358.638 301.505, 363.833 297.627 C 372.941 290.828, 374.496 288.880, 377.898 280 C 383.488 265.407, 386.253 253.488, 385.821 245.844 C 385.371 237.874, 383.475 234.702, 377.002 231.087 L 372.681 228.674 376.091 225.690 C 389.099 214.303, 402.971 200.613, 408.535 193.669 C 415.645 184.795, 424.394 168.577, 431.011 152 C 436.663 137.841, 447.115 107.782, 446.574 107.241 C 446.335 107.001, 441.495 111.201, 435.819 116.574 C 422.410 129.268, 415.203 135.234, 406 141.263 C 396.755 147.319, 396.671 147.125, 401.042 129.893 C 407.643 103.876, 410.625 79.671, 409.653 60 C 408.999 46.745, 405.686 22.048, 404.208 19.408 C 403.555 18.241, 401.330 22.349, 395.625 35.248 C 384.407 60.616, 372.015 80.989, 362.017 90.500 C 359.143 93.234, 358.776 93.344, 357.877 91.742 C 357.335 90.775, 354.201 86.639, 350.913 82.552 C 334.479 62.124, 308.382 49.656, 285.546 51.324 L 277.500 51.912 267 42.832 C 254.648 32.151, 244.711 24.943, 236.779 20.909 C 230.402 17.667, 229.546 17.436, 230.627 19.250 M 247.500 144.587 C 234.216 146.501, 224.017 148.721, 215.500 151.553 C 195.449 158.219, 195.218 158.077, 225 157.382 C 244.651 156.923, 257.316 157.176, 274 158.363 C 286.375 159.242, 300.550 160.217, 305.500 160.530 C 323.525 161.666, 332.920 164.537, 335.233 169.613 C 336.105 171.526, 336.102 174.383, 335.221 181.322 C 333.633 193.822, 331.414 200.740, 327.850 204.304 C 324.947 207.207, 324.700 207.264, 317.687 206.637 C 288.794 204.056, 281.241 203.792, 252 204.335 C 232.688 204.694, 216.437 205.498, 210 206.411 C 198.134 208.095, 180.972 211.666, 180.087 212.635 C 179.483 213.296, 196.715 212.656, 224 211.004 C 269.932 208.223, 331.202 210.885, 349.500 216.456 C 357.611 218.926, 358.599 218.650, 359.881 213.557 C 360.497 211.114, 361 202.624, 361 194.692 C 361 177.923, 361.140 178.242, 350.255 170.216 C 328.547 154.210, 300.058 145.571, 265.755 144.591 C 257.365 144.351, 249.150 144.349, 247.500 144.587 M 205.500 164.061 C 201.027 165.374, 194.986 170.822, 192.893 175.429 C 190.826 179.979, 190.443 188.105, 192.075 192.785 C 193.403 196.594, 195.979 198.331, 204.141 200.920 C 210.319 202.880, 211.935 202.915, 261 202.129 C 305.607 201.415, 312.106 201.112, 316.690 199.528 C 324.599 196.795, 326.800 193.889, 328.193 184.332 C 329.342 176.449, 329.314 176.211, 326.720 171.786 C 323.513 166.312, 320.870 165.130, 310.724 164.627 C 304.535 164.320, 303.280 164.485, 304.576 165.432 C 308.253 168.120, 306.904 182.345, 302.636 185.887 C 301.843 186.546, 287.918 187.149, 264.939 187.521 C 244.898 187.846, 225.575 188.199, 222 188.306 C 216.018 188.485, 215.475 188.327, 215.191 186.327 C 214.798 183.569, 217.536 178.201, 223.395 170.247 C 225.928 166.808, 228 163.771, 228 163.497 C 228 162.647, 208.667 163.131, 205.500 164.061 M 232.606 173.002 C 228.814 177.976, 225.907 182.240, 226.145 182.478 C 226.660 182.993, 278.829 180.178, 281 179.518 C 281.825 179.267, 284.188 178.956, 286.250 178.827 C 289.121 178.646, 290 178.165, 290 176.774 C 290 174.386, 294.588 172.188, 296.203 173.803 C 297.069 174.669, 296.939 175.410, 295.676 176.805 C 293.495 179.216, 293.560 180, 295.943 180 C 298.104 180, 301 176.481, 301 173.855 C 301 171.544, 296.666 170.323, 284 169.068 C 278.225 168.495, 268.550 167.390, 262.500 166.611 C 256.450 165.833, 248.800 164.918, 245.500 164.578 L 239.500 163.960 232.606 173.002 M 322.452 173.264 C 321.410 175.980, 322.402 178.500, 324.514 178.500 C 326.795 178.500, 326.764 175.449, 324.458 173.072 C 323.260 171.837, 322.990 171.863, 322.452 173.264 M 194.571 174.571 C 192.402 176.741, 192.603 179, 194.965 179 C 196.835 179, 199 176.352, 199 174.066 C 199 172.477, 196.365 172.778, 194.571 174.571 M 317.605 187.299 C 316.423 188.164, 315.941 189.586, 316.164 191.549 C 316.601 195.385, 320.110 196.108, 322.403 192.834 C 324.385 190.006, 324.387 189.530, 322.429 187.571 C 320.520 185.663, 319.892 185.628, 317.605 187.299 M 196.067 188.419 C 194.566 190.228, 195.480 193.586, 197.705 194.440 C 200.225 195.407, 201.541 193.437, 200.445 190.337 C 199.304 187.107, 197.729 186.417, 196.067 188.419 M 197 190.441 C 197 191.234, 197.450 192.160, 198 192.500 C 198.550 192.840, 199 192.191, 199 191.059 C 199 189.927, 198.550 189, 198 189 C 197.450 189, 197 189.648, 197 190.441 M 317.651 190.468 C 317.009 192.139, 318.499 193.427, 320 192.500 C 321.495 191.576, 321.206 189, 319.607 189 C 318.841 189, 317.960 189.661, 317.651 190.468 M 177 221.553 C 172.325 222.300, 166.475 223.522, 164 224.269 L 159.500 225.625 159.821 231.063 C 160.219 237.790, 167.161 270.938, 170.649 282.759 C 172.067 287.566, 173.449 292.269, 173.720 293.209 C 174.130 294.634, 174.734 294.366, 177.356 291.596 C 179.085 289.768, 182.769 287.127, 185.543 285.725 C 190.429 283.256, 201.903 279.463, 202.387 280.157 C 202.518 280.346, 203.117 282.187, 203.719 284.249 C 204.950 288.471, 205.375 287.973, 196.944 292.186 C 193.807 293.754, 189.173 297.246, 186.647 299.946 C 182.302 304.591, 182.113 305.027, 183.154 308.012 L 184.254 311.167 188.377 307.211 C 192.536 303.220, 199.600 298.775, 203.750 297.536 C 205.708 296.952, 206.002 297.231, 206.015 299.683 C 206.024 301.232, 206.446 303.157, 206.955 303.961 C 207.635 305.037, 206.733 306.647, 203.532 310.069 C 199.040 314.871, 195 321.717, 195 324.527 C 195 327.155, 199.690 332.524, 208.352 339.813 C 218.924 348.709, 219.367 348.914, 226 347.947 C 233.764 346.816, 281.843 346.808, 285.779 347.937 C 288.820 348.809, 289.577 348.470, 296.773 343.006 C 301.023 339.778, 307.342 334.409, 310.816 331.073 L 317.133 325.008 314.833 320.917 C 313.568 318.667, 310.244 314.277, 307.446 311.163 C 302.719 305.902, 302.389 305.198, 302.784 301.250 C 303.096 298.140, 303.651 297.003, 304.855 297.009 C 307.868 297.027, 316.678 302.827, 320.796 307.506 C 324.607 311.836, 324.930 312, 325.931 310.128 C 326.519 309.030, 327 307.203, 327 306.069 C 327 302.999, 320.991 296.919, 313.802 292.714 C 307.453 289.001, 307.448 288.994, 307.838 284.903 L 308.228 280.807 312.864 281.494 C 319.787 282.519, 326.250 285.648, 330.560 290.062 C 332.675 292.228, 334.682 294, 335.020 294 C 335.919 294, 338.215 286.152, 344.384 262 C 350.287 238.889, 352.736 225.336, 351.273 223.873 C 349.762 222.362, 336.883 220.035, 330 220.029 C 323.207 220.023, 316.599 221.471, 309 224.630 C 298.730 228.898, 298.084 231.202, 307.931 228.439 C 324.367 223.827, 338.137 231.893, 336.630 245.249 C 335.902 251.702, 332.634 258.748, 328.309 263.187 C 324.841 266.747, 319.460 269.794, 318.441 268.775 C 318.169 268.503, 319.519 265.944, 321.441 263.088 C 327.275 254.419, 328.441 246.771, 325.063 239.331 C 324.022 237.038, 322.261 234.675, 321.151 234.081 C 318.652 232.743, 312.019 232.695, 310 234 C 308.814 234.767, 309.028 234.973, 311.027 234.985 C 316.344 235.017, 321 240.852, 321 247.482 C 321 262.457, 302.513 269.656, 295.054 257.587 C 292.202 252.973, 291.301 246.675, 293.029 243.446 C 295.494 238.841, 293.284 239.953, 288.499 245.726 C 285.866 248.902, 282.819 253.496, 281.728 255.935 C 279.880 260.064, 279.649 260.240, 278.372 258.493 C 276.578 256.041, 276.585 255.982, 279.500 248.808 C 280.875 245.424, 282 242.064, 282 241.342 C 282 240.619, 283.800 238.837, 286 237.381 C 288.200 235.925, 290 234.580, 290 234.392 C 290 233.152, 275.798 240.333, 274.025 242.470 C 272.824 243.917, 272.529 243.677, 271.353 240.298 C 269.725 235.624, 269.712 236, 271.498 236 C 273.265 236, 288.952 227.795, 288.981 226.856 C 289.048 224.604, 274.921 230.378, 260.309 238.575 L 255.117 241.487 248.540 238.244 C 244.922 236.460, 241.746 235, 241.481 235 C 241.216 235, 241 237.175, 241 239.833 C 241 242.492, 240.704 244.963, 240.342 245.324 C 239.981 245.686, 238.176 244.429, 236.332 242.530 C 232.768 238.860, 207.068 225.594, 196.593 222.017 C 189.857 219.717, 188.660 219.688, 177 221.553 M 221.500 227.046 C 229.189 232.257, 237.138 236.160, 238.772 235.527 C 240.361 234.911, 240.340 234.733, 238.500 233.309 C 235.495 230.982, 222.390 224.999, 220.316 225.007 C 218.946 225.012, 219.238 225.513, 221.500 227.046 M 186.849 228.388 C 177.417 230.928, 173.752 235.523, 173.861 244.668 C 173.979 254.545, 179.958 263.807, 189.185 268.405 C 195.883 271.743, 197.181 270.703, 191.929 266.207 C 186.503 261.563, 184.050 256.105, 184.022 248.618 C 183.998 242.320, 186.199 237.375, 190.305 234.499 C 192.725 232.804, 197 232.485, 197 234 C 197 234.550, 196.569 235, 196.042 235 C 194.213 235, 190 243.631, 190 247.378 C 190 252.034, 192.980 257.964, 197.033 261.374 C 204.920 268.011, 216.764 261.423, 218.568 249.397 C 218.945 246.879, 218.720 244.346, 217.999 242.999 C 217.343 241.772, 217.227 240.933, 217.742 241.134 C 219.679 241.891, 230.059 254.388, 230.626 256.646 C 230.951 257.941, 231.668 259, 232.220 259 C 233.789 259, 232.152 252.047, 229.425 247.124 C 226.442 241.741, 226.441 241.788, 229.504 243.184 C 232.141 244.385, 233.642 243.848, 232.556 242.091 C 231.256 239.987, 218.333 233.511, 209.047 230.310 C 198.848 226.793, 194.248 226.395, 186.849 228.388 M 369.183 239.584 C 366.614 241.384, 365.529 245.173, 363.561 259.210 C 361.351 274.977, 359.141 279, 352.687 279 C 350.933 279, 349.956 279.777, 349.227 281.750 C 347.018 287.732, 344 296.740, 344 297.353 C 344 298.933, 347.024 297.667, 353.511 293.370 C 366.467 284.787, 367.612 283.166, 373.399 265.210 C 378.407 249.671, 378.327 241.851, 373.132 239.070 C 371.834 238.376, 370.697 238.524, 369.183 239.584 M 132.362 242.676 C 130.332 247.535, 131.065 252.130, 136.572 269.055 C 139.855 279.143, 141.688 283.252, 143.741 285.124 C 147.911 288.925, 161.858 298, 163.530 298 C 165.565 298, 165.392 296.567, 162.410 288.765 C 159.633 281.496, 157.177 279, 152.803 279 C 148.318 279, 146.240 272.889, 144.474 254.500 C 143.775 247.228, 141.799 241.127, 139.711 239.800 C 136.702 237.888, 133.906 238.982, 132.362 242.676 M 198.009 242.893 C 194.239 243.942, 193.083 248.293, 195.657 251.752 C 196.781 253.263, 198.669 254.644, 199.852 254.820 C 201.817 255.112, 201.912 254.899, 200.946 252.359 C 199.958 249.760, 200.133 247.423, 201.603 243.593 C 202.257 241.888, 201.882 241.815, 198.009 242.893 M 309.844 242.750 C 309.757 243.162, 309.645 245.861, 309.594 248.746 C 309.510 253.434, 309.723 253.993, 311.595 253.996 C 315.921 254.004, 318.355 248.399, 315.965 243.934 C 314.972 242.078, 310.177 241.151, 309.844 242.750 M 209.015 245.972 C 208.457 247.015, 208 249.023, 208 250.434 C 208 252.469, 208.492 253, 210.378 253 C 215.206 253, 216.712 246.530, 212.265 244.897 C 210.556 244.269, 209.791 244.522, 209.015 245.972 M 297.573 247.569 C 296.369 248.774, 296.251 249.601, 297.067 251.126 C 298.014 252.894, 301.994 255.220, 302.816 254.484 C 303.473 253.897, 300.883 246, 300.033 246 C 299.543 246, 298.437 246.706, 297.573 247.569 M 202.500 270 L 196.500 270.664 203.750 270.832 C 208.029 270.931, 211 270.590, 211 270 C 211 269.450, 210.438 269.076, 209.750 269.168 C 209.063 269.261, 205.800 269.635, 202.500 270 M 299 270.080 C 299 270.815, 301.151 270.935, 305.750 270.456 C 314.750 269.519, 314.899 269, 306.167 269 C 301.703 269, 299 269.407, 299 270.080 M 249.378 292.545 C 247.959 294.711, 247.905 295.454, 249.015 297.529 C 250.774 300.815, 253.680 301.600, 256.072 299.435 C 258.405 297.324, 258.569 293.712, 256.429 291.571 C 254.118 289.261, 251.273 289.654, 249.378 292.545 M 231 324 C 228.589 326.411, 228.370 331.655, 230.550 334.768 C 232.053 336.913, 232.181 336.928, 234.756 335.240 C 237.041 333.743, 239.869 333.513, 254.975 333.591 C 266.187 333.649, 273.320 334.101, 274.700 334.839 C 276.435 335.768, 277.170 335.687, 278.431 334.427 C 280.442 332.415, 280.448 327.085, 278.443 324.223 C 276.915 322.041, 276.485 322, 254.943 322 C 234.333 322, 232.878 322.122, 231 324 M 244.186 325.744 C 237.303 326.070, 236.891 326.220, 237.186 328.295 C 237.495 330.462, 237.808 330.505, 255.250 330.773 C 272.389 331.037, 273 330.978, 273 329.058 C 273 325.068, 268.759 324.580, 244.186 325.744 M 296.978 365.873 C 288.441 367.923, 280.904 369.942, 280.228 370.359 C 278.587 371.374, 278.668 374.480, 280.373 375.895 C 281.418 376.762, 285.185 376.315, 296.123 374.026 C 315.528 369.964, 317.691 369.290, 318.257 367.126 C 318.959 364.442, 317.232 361.989, 314.700 362.073 C 313.490 362.113, 305.515 363.823, 296.978 365.873 M 194.667 363.667 C 192.963 365.371, 194.119 368.805, 196.750 369.854 C 201.849 371.887, 233.226 379.127, 234.619 378.593 C 236.827 377.745, 236.266 373.220, 233.750 371.579 C 232.512 370.771, 227.900 369.373, 223.500 368.472 C 219.100 367.570, 211.900 365.974, 207.500 364.923 C 199.025 362.901, 195.753 362.580, 194.667 363.667 M 331.663 406.699 C 329.480 413.546, 319.315 453.134, 317.536 461.720 C 316.025 469.013, 316.308 472.392, 318.373 471.715 C 320.595 470.986, 336.365 411.432, 335.815 405.849 C 335.332 400.946, 333.370 401.348, 331.663 406.699 M 214.635 452.073 C 211.655 454.416, 211.337 456.818, 213.463 460.928 C 217.071 467.906, 227.022 465.566, 226.985 457.750 C 226.967 453.940, 226.284 452.712, 223.316 451.150 C 220.120 449.468, 217.607 449.735, 214.635 452.073" stroke="none" fill="black" fill-rule="evenodd"/>
</svg>